<svg preserveAspectRatio="none" overflow="visible" style="display: block;" width="109.342" height="134.509" viewBox="0 0 109.342 134.509" fill="none" xmlns="http://www.w3.org/2000/svg">
<g id="Frame 31">
<path id="Vector" d="M105.658 12.5661L97.8009 27.2928L95.9326 26.5254L58.8611 114.228H109.342V134.509H39.8491L43.8786 125.41L87.1959 22.9625L85.5108 22.2682L90.273 6.28073C91.1338 3.39385 93.4966 1.18301 96.4455 0.506964C99.8889 -0.260435 103.442 1.18302 105.347 4.14298C106.959 6.68271 107.105 9.89848 105.677 12.5661H105.658Z" fill="#070707"/>
<path id="Vector_2" d="M66.1582 12.2523L58.3687 27.0065L56.5036 26.2569L19.8049 114.142L61.2943 113.996L61.3675 134.29L0.879546 134.509L4.86575 125.386L47.7266 22.71L46.0444 22.0336L50.7254 6.01785C51.5665 3.11088 53.9254 0.898654 56.8693 0.22219C60.3069 -0.56397 63.8543 0.880377 65.7743 3.84219C67.4016 6.3835 67.5479 9.60127 66.14 12.2706L66.1582 12.2523Z" fill="#070707"/>
</g>
</svg>
