<svg width="419" height="197" viewBox="0 0 419 197" fill="none" xmlns="http://www.w3.org/2000/svg">
<path d="M348.238 148.863L298.129 148.863L298.129 121.388L330.314 121.388C330.314 139.574 334.893 146.115 348.238 146.115L348.238 148.863Z" fill="black"/>
<path d="M376.5 173.46L326.39 173.46L326.39 145.985L358.576 145.985C358.576 164.171 363.155 170.712 376.5 170.712L376.5 173.46Z" fill="black"/>
<path d="M302.841 167.049L302.841 116.939L330.316 116.939L330.316 149.125C312.13 149.125 305.589 153.704 305.589 167.049L302.841 167.049Z" fill="black"/>
<path d="M302.841 162.339L302.841 112.229L330.316 112.229L330.316 144.415C312.13 144.415 305.589 148.994 305.589 162.339L302.841 162.339Z" fill="black"/>
<path d="M188.359 85.2777L138.25 85.2777L138.25 57.8025L170.435 57.8025C170.435 75.9885 175.014 82.5302 188.359 82.5302L188.359 85.2777Z" fill="black"/>
<path d="M245.534 4.68359L245.534 54.7931L218.059 54.7931L218.059 22.6079C236.245 22.6079 242.786 18.0287 242.786 4.68359L245.534 4.68359Z" fill="black"/>
<path d="M275.889 57.8025L275.889 107.912L248.414 107.912L248.414 75.7268C266.6 75.7268 273.142 71.1476 273.142 57.8025L275.889 57.8025Z" fill="black"/>
<path d="M172.398 157.236L122.289 157.236L122.289 129.761L154.474 129.761C154.474 147.947 159.053 154.489 172.398 154.489L172.398 157.236Z" fill="black"/>
<path d="M172.398 95.2209L122.289 95.2209L122.289 122.696L154.474 122.696C154.474 104.51 159.053 97.9684 172.398 97.9684L172.398 95.2209Z" fill="black"/>
<path d="M136.813 57.8024L86.703 57.8024L86.703 85.2776L118.888 85.2776C118.888 67.0916 123.467 60.5499 136.813 60.5499L136.813 57.8024Z" fill="black"/>
<path d="M376.5 57.8024L326.39 57.8024L326.39 85.2776L358.576 85.2776C358.576 67.0916 363.155 60.5499 376.5 60.5499L376.5 57.8024Z" fill="black"/>
<path d="M38.2935 173.329L38.293 123.219H42.0876C42.2184 132.901 46.1425 141.144 52.2922 141.144C59.7498 141.144 63.0212 132.247 63.0212 123.219H65.7687V173.329H38.2935Z" fill="black"/>
<path d="M217.797 57.8023L217.797 107.912H221.591C221.722 98.2301 225.646 89.9876 231.796 89.9876C239.254 89.9876 242.525 98.8843 242.525 107.912H245.273V57.8023H217.797Z" fill="black"/>
<path d="M277.985 57.5406L277.984 107.65H281.779C281.91 97.9684 285.834 89.7259 291.984 89.7259C299.441 89.7259 302.713 98.6226 302.713 107.65H305.46V57.5406H277.985Z" fill="black"/>
<path d="M38.2935 134.079L38.293 83.9692H42.0876C42.2184 93.651 46.1425 101.894 52.2922 101.894C59.7498 101.894 63.0212 92.9968 63.0212 83.9692H65.7687V134.079H38.2935Z" fill="black"/>
<path d="M217.797 97.0526L217.797 147.162H221.591C221.722 137.48 225.646 129.238 231.796 129.238C239.254 129.238 242.525 138.135 242.525 147.162H245.273V97.0526H217.797Z" fill="black"/>
<path d="M277.985 96.7909L277.984 146.9H281.779C281.91 137.219 285.834 128.976 291.984 128.976C299.441 128.976 302.713 137.873 302.713 146.9H305.46V96.7909H277.985Z" fill="black"/>
<path d="M38.2935 109.089L38.293 159.199H42.0876C42.2184 149.517 46.1425 141.275 52.2922 141.275C59.7498 141.275 63.0212 150.171 63.0212 159.199H65.7687V109.089H38.2935Z" fill="black"/>
<path d="M217.797 122.042L217.797 71.9324H221.591C221.722 81.6141 225.646 89.8567 231.796 89.8567C239.254 89.8567 242.525 80.9599 242.525 71.9324H245.273V122.042H217.797Z" fill="black"/>
<path d="M277.985 121.78L277.984 71.6707H281.779C281.91 81.3524 285.834 89.5949 291.984 89.5949C299.441 89.5949 302.713 80.6982 302.713 71.6707H305.46V121.78H277.985Z" fill="black"/>
<path d="M168.735 114.323L168.734 164.432H172.529C172.66 154.751 176.584 146.508 182.734 146.508C190.191 146.508 193.463 155.405 193.463 164.432H196.21V114.323H168.735Z" fill="black"/>
<path d="M154.344 105.165L104.234 105.164L104.234 108.959C113.916 109.09 122.159 113.014 122.159 119.164C122.159 126.621 113.262 129.893 104.234 129.893L104.234 132.64L154.344 132.64L154.344 105.165Z" fill="black"/>
<path d="M38.2935 70.1009L38.293 120.21H42.0876C42.2184 110.529 46.1425 102.286 52.2922 102.286C59.7498 102.286 63.0212 111.183 63.0212 120.21H65.7687V70.1009H38.2935Z" fill="black"/>
<path d="M217.797 161.031L217.797 110.921H221.591C221.722 120.603 225.646 128.845 231.796 128.845C239.254 128.845 242.525 119.949 242.525 110.921H245.273V161.031H217.797Z" fill="black"/>
<path d="M277.985 160.769L277.984 110.659H281.779C281.91 120.341 285.834 128.584 291.984 128.584C299.441 128.584 302.713 119.687 302.713 110.659H305.46V160.769H277.985Z" fill="black"/>
<path d="M168.735 82.3993L168.734 132.509H172.529C172.66 122.827 176.584 114.584 182.734 114.584C190.191 114.584 193.463 123.481 193.463 132.509H196.21V82.3993H168.735Z" fill="black"/>
<path d="M206.024 173.067L206.023 122.958H209.818C209.949 132.639 213.873 140.882 220.023 140.882V158.676C220.023 158.676 215.444 157.291 212.565 159.33C209.687 161.368 209.818 165.871 209.818 165.871V173.067H206.024Z" fill="black"/>
<path d="M206.024 74.026L206.023 124.135H209.818C209.949 114.454 213.873 106.211 220.023 106.211V88.4177C220.023 88.4177 215.444 89.8019 212.565 87.7636C209.687 85.7252 209.818 81.2219 209.818 81.2219V74.026H206.024Z" fill="black"/>
<path d="M176.719 73.8949L176.719 23.7854H180.513C180.644 33.4671 184.568 41.7097 190.718 41.7097V59.5032C190.718 59.5032 186.139 58.119 183.26 60.1573C180.382 62.1957 180.513 66.699 180.513 66.699V73.8949H176.719Z" fill="black"/>
<path d="M275.886 173.329L275.887 123.219H272.092C271.961 132.901 268.037 141.144 261.887 141.144V158.937C261.887 158.937 266.467 157.553 269.345 159.591C272.223 161.63 272.092 166.133 272.092 166.133V173.329H275.886Z" fill="black"/>
<path d="M193.723 73.8949L193.723 23.7854H197.517C197.648 33.4671 201.572 41.7097 207.722 41.7097V59.5032C207.722 59.5032 203.143 58.119 200.264 60.1573C197.386 62.1957 197.517 66.699 197.517 66.699V73.8949H193.723Z" fill="black"/>
<path d="M330.187 164.956L330.188 114.846H326.393C326.262 124.528 322.338 132.77 316.188 132.77V150.564C316.188 150.564 320.767 149.18 323.646 151.218C326.524 153.256 326.393 157.76 326.393 157.76V164.956H330.187Z" fill="black"/>
<path d="M86.7037 130.154L86.7031 80.0442H90.4977C90.6285 89.7259 94.5526 97.9685 100.702 97.9685V115.762C100.702 115.762 96.1232 114.378 93.2448 116.416C90.3665 118.454 90.4977 122.958 90.4977 122.958V130.154H86.7037Z" fill="black"/>
<path d="M70.6095 57.803L20.5 57.8025L20.5 61.5971C30.1817 61.7279 38.4243 65.652 38.4243 71.8018L56.2178 71.8018C56.2178 71.8018 54.8336 67.2226 56.8719 64.3442C58.9103 61.4658 63.4136 61.5971 63.4136 61.5971L70.6095 61.5971L70.6095 57.803Z" fill="black"/>
<path d="M70.6095 173.198L20.5 173.198L20.5 169.404C30.1817 169.273 38.4243 165.349 38.4243 159.199L56.2178 159.199C56.2178 159.199 54.8336 163.778 56.8719 166.657C58.9103 169.535 63.4136 169.404 63.4136 169.404L70.6095 169.404L70.6095 173.198Z" fill="black"/>
<path d="M274.055 173.198L324.164 173.198L324.164 169.404C314.482 169.273 306.24 165.349 306.24 159.199L288.446 159.199C288.446 159.199 289.831 163.778 287.792 166.657C285.754 169.535 281.25 169.404 281.25 169.404L274.055 169.404L274.055 173.198Z" fill="black"/>
<path d="M200.922 173.198L150.812 173.198L150.813 169.404C160.494 169.273 168.737 165.349 168.737 159.199L186.53 159.199C186.53 159.199 185.146 163.778 187.184 166.657C189.223 169.535 193.726 169.404 193.726 169.404L200.922 169.404L200.922 173.198Z" fill="black"/>
<path d="M33.5819 57.803L83.6914 57.8025L83.6914 61.5971C74.0097 61.7279 65.7671 65.652 65.7671 71.8018L47.9737 71.8018C47.9737 71.8018 49.3579 67.2226 47.3195 64.3442C45.2811 61.4658 40.7778 61.5971 40.7778 61.5971L33.5819 61.5971L33.5819 57.803Z" fill="black"/>
<path d="M33.5819 173.198L83.6914 173.198L83.6914 169.404C74.0097 169.273 65.7671 165.349 65.7671 159.199L47.9737 159.199C47.9737 159.199 49.3579 163.778 47.3195 166.657C45.2811 169.535 40.7778 169.404 40.7778 169.404L33.5819 169.404L33.5819 173.198Z" fill="black"/>
<path d="M213.09 57.9339L263.199 57.9333L263.199 61.7279C253.517 61.8588 245.275 65.7829 245.275 71.9326L227.481 71.9326C227.481 71.9326 228.866 67.3534 226.827 64.4751C224.789 61.5967 220.286 61.7279 220.286 61.7279L213.09 61.7279L213.09 57.9339Z" fill="black"/>
<path d="M213.09 173.067L263.199 173.067L263.199 169.273C253.517 169.142 245.275 165.218 245.275 159.068L227.481 159.068C227.481 159.068 228.866 163.647 226.827 166.526C224.789 169.404 220.286 169.273 220.286 169.273L213.09 169.273L213.09 173.067Z" fill="black"/>
<path d="M274.32 57.6722L324.43 57.6716L324.43 61.4662C314.748 61.597 306.505 65.5212 306.505 71.6709L288.712 71.6709C288.712 71.6709 290.096 67.0917 288.058 64.2133C286.019 61.335 281.516 61.4662 281.516 61.4662L274.32 61.4662L274.32 57.6722Z" fill="black"/>
<path d="M327.438 84.4925L327.438 134.602L331.232 134.602C331.363 124.92 335.287 116.678 341.437 116.678L341.437 98.8843C341.437 98.8843 336.858 100.268 333.979 98.2301C331.101 96.1918 331.232 91.6884 331.232 91.6884L331.232 84.4925L327.438 84.4925Z" fill="black"/>
<path d="M81.992 173.198L132.102 173.198L132.102 169.404C122.42 169.273 114.177 165.349 114.177 159.199L96.3838 159.199C96.3838 159.199 97.768 163.778 95.7296 166.657C93.6913 169.535 89.1879 169.404 89.1879 169.404L81.992 169.404L81.992 173.198Z" fill="black"/>
<path d="M302.84 130.154V92.8659H306.634C306.765 102.548 315.138 101.501 318.802 98.0993C325.605 91.7819 326.521 84.1001 327.568 80.0442H330.315V130.154H327.568C327.568 126.621 324.087 122.573 317.886 122.573C310.036 122.573 306.634 127.014 306.634 130.154H302.84Z" fill="black"/>
<path d="M61.8438 123.35V86.0625H65.6379C65.7688 95.7442 74.1422 94.6975 77.8055 91.2958C84.6089 84.9784 85.5247 77.2966 86.5714 73.2407H89.3189V123.35H86.5714C86.5714 119.818 83.0911 115.769 76.8897 115.769C69.0396 115.769 65.6379 120.21 65.6379 123.35H61.8438Z" fill="black"/>
<path d="M114.176 173.329V136.041H110.382C110.251 145.723 101.877 144.676 98.214 141.275C91.4106 134.957 90.4948 127.275 89.4481 123.219H86.7006V173.329H114.176Z" fill="black"/>
<path d="M245.273 173.329V136.041H241.479C241.348 145.723 232.975 144.676 229.312 141.275C222.508 134.957 221.592 127.275 220.546 123.219H217.798V173.329H245.273Z" fill="black"/>
<path d="M196.078 173.329V136.041H192.284C192.153 145.723 183.78 144.676 180.116 141.275C173.313 134.957 172.397 127.275 171.35 123.219H168.603V173.329H196.078Z" fill="black"/>
<path d="M305.457 173.067V135.78H301.663C301.532 145.461 293.159 144.415 289.495 141.013C282.692 134.695 281.776 127.014 280.729 122.958H277.982V173.067H305.457Z" fill="black"/>
<path d="M279.027 109.482V72.1941H282.822C282.952 81.8758 291.326 80.8291 294.989 77.4274C301.793 71.11 302.708 63.4282 303.755 59.3723H306.503V109.482H279.027Z" fill="black"/>
</svg>
