<svg preserveAspectRatio="none" overflow="visible" style="display: block;" width="88.0234" height="73.0475" viewBox="0 0 88.0234 73.0475" fill="none" xmlns="http://www.w3.org/2000/svg">
<path id="Vector" d="M70.7828 46.5247C67.0375 43.6203 66.0727 39.9381 68.3548 35.7359L71.1741 30.5469C72.0879 28.865 72.3334 26.8283 71.93 25.0346C71.6505 23.7854 70.513 23.0708 69.2638 23.569C68.277 23.9628 67.2466 24.9058 66.8407 25.9412L64.906 30.8555C64.646 31.5166 64.1745 32.7513 63.4551 32.9506C61.3649 33.5315 59.5761 34.4648 58.604 36.4577L56.3874 41.0124L52.3043 49.553C50.2773 53.1476 47.548 55.9208 44.1138 58.1203C42.2448 59.3161 41.7101 61.6299 42.9204 63.4697C43.5863 64.4808 44.437 65.3266 45.3387 66.153C47.1518 67.813 48.401 70.1413 47.0643 71.4635C46.5563 71.9666 45.4359 72.1926 44.753 71.8426C35.0993 66.8845 28.9601 74.1151 23.3045 72.9096C20.4195 72.2947 18.6016 69.9639 18.7547 66.9842C18.8568 65.0276 19.6491 63.1441 20.7234 61.5011L23.8051 56.7884C25.0058 54.951 25.4287 52.2386 24.1211 51.5046C22.6701 50.6904 21.0126 52.3091 19.6637 53.867C15.1431 59.0901 7.29039 57.2818 3.85376 52.715C0.883785 48.768 1.06121 43.4963 3.78329 39.4399C4.92316 37.741 6.31822 36.3629 7.65739 34.8536C9.58228 32.6857 9.76457 29.7132 7.85911 27.5574C6.45433 25.9679 4.05792 25.7419 2.53648 27.2609C1.47924 28.3182 1.61292 29.6865 2.25698 31.1642C1.31155 30.8774 0.606722 30.1361 0.30535 29.266C-0.642516 26.5342 0.696646 23.8486 3.21214 22.5701C6.59286 20.8518 10.4742 21.5032 13.2133 24.1499C16.526 27.3484 17.1603 32.2701 14.5112 36.1078L11.636 40.2663C10.2191 42.3176 10.0368 45.1223 11.6749 47.0739C13.313 49.0256 16.0788 48.5419 17.5322 46.6073C18.6939 45.0615 18.9783 43.2192 19.1776 41.2506C19.3453 39.5979 20.3661 37.7094 22.1719 37.9598L24.6242 38.3C26.1894 30.7899 26.3522 22.5823 23.1246 15.4878C21.7125 12.3841 19.5106 10.2113 16.492 8.71414C14.9243 7.9364 13.6775 6.3226 13.5925 4.56781C13.4855 2.36097 15.1625 0.594028 17.2551 0.161408C18.6283 -0.122954 20.1133 -0.0135795 21.4816 0.348557L29.7086 2.5311C33.9497 3.65639 38.1835 3.40848 42.5145 3.10225C43.9655 3.00017 45.4408 3.8022 46.1432 4.73063C47.9879 7.17324 46.2744 9.85161 43.9339 12.0074C41.8219 13.9493 40.8424 16.5548 41.3358 19.3692C41.6833 21.3525 40.9226 23.0927 39.564 24.4489C37.2891 26.7213 35.9573 29.6209 35.2767 32.8048C34.5063 36.3994 34.1709 39.9746 34.008 43.681C33.906 45.9583 34.4674 48.6562 36.2659 49.1909C37.0947 49.4363 38.2953 49.2224 39.0609 48.6926C42.41 46.3812 44.8404 42.9883 46.2477 39.1555L47.5577 35.5901C48.6684 32.569 50.6151 30.2163 53.2667 28.4105C55.4784 26.9061 57.0582 24.8523 57.8262 22.2688L60.0501 14.7927C60.7986 12.2723 62.0552 9.99742 63.844 8.16729C65.538 6.73576 67.4993 5.86568 69.7134 6.27156C71.4512 7.68608 73.5098 7.67636 75.4857 6.63613L81.2968 2.48004C82.0624 1.93319 83.02 1.18461 84.0262 1.50786C86.7629 2.38525 85.8369 10.1044 81.5374 12.9917C83.3384 13.5969 84.4637 14.7951 84.7505 16.5232C85.1855 19.1383 84.0432 21.7146 81.8437 23.2069L79.6563 24.6895C79.3841 24.8742 79.0244 25.5086 79.0365 25.8221C79.0487 26.1356 79.3938 26.7383 79.6368 26.9644L82.2787 29.4216C83.8585 31.4389 83.3748 34.1464 81.343 35.5803C80.6625 36.0591 79.982 37.0143 79.9115 37.7823L82.5363 39.8871C84.3251 42.0988 84.0408 45.0372 82.7818 47.5187C86.4858 50.0853 88.2114 54.1198 88.0072 58.5019C87.6597 65.9221 82.1621 71.6603 74.8003 72.2777C67.6597 72.878 61.4403 68.1848 60.106 61.1074C59.5858 58.3561 59.8556 55.6558 61.3406 53.2521C63.4478 49.8422 67.7691 48.4787 71.3297 50.3502C74.4187 51.9762 75.8016 55.5611 74.341 58.7328C73.9254 59.6394 72.9483 60.3904 72.1171 60.6431C72.54 58.5894 72.4525 56.8079 71.0502 55.4833C70.4231 54.8927 69.3659 54.6059 68.4982 54.691C67.8031 54.759 66.7921 55.3642 66.4469 56.1735C65.2998 58.864 66.8795 61.9288 69.3805 62.8767C72.207 63.9485 75.0385 62.6725 76.2586 59.8702C77.6779 56.611 77.0436 52.8584 74.725 50.129C73.5462 48.7412 72.2314 47.6402 70.7877 46.5198L70.7828 46.5247Z" fill="black"/>
</svg>
