<svg width="810" height="285" viewBox="0 0 810 285" fill="none" xmlns="http://www.w3.org/2000/svg">
<path d="M375.054 171.467C375.726 152.745 377.776 134.224 384.194 116.444C395.586 84.9153 418.705 66.6975 450.461 58.4289C462.39 55.3366 474.622 55.2694 486.853 55.8072C490.247 55.9416 490.247 56.0424 489.407 59.2356C488.13 64.143 486.719 69.0167 485.644 73.9914C485.24 75.9073 484.434 76.3106 482.653 76.2434C472.639 75.7728 462.659 76.0081 452.981 79.0332C434.532 84.8145 419.344 94.9654 409.531 112.108C404.894 120.242 402.844 129.25 400.828 138.258C398.24 150.022 396.594 161.921 396.762 173.988C396.829 180.307 397.602 186.525 399.551 192.542C403.516 204.844 411.884 212.507 424.418 215.364C427.005 215.969 427.61 216.843 427.106 219.398C426.031 224.641 425.258 229.952 424.451 235.229C424.216 236.775 423.779 237.112 422.133 236.809C399.215 232.776 381.976 216.104 377.171 193.281C375.659 186.088 374.886 178.862 375.054 171.5V171.467Z" fill="black"/>
<path d="M594.551 0.279297C594.954 0.581807 595.324 0.850705 595.693 1.1196C601.036 4.98501 606.547 8.51431 612.663 11.0352C614.847 11.9428 614.108 13.1864 613.671 14.5309C607.32 34.5974 600.969 54.6639 594.618 74.7304C581.681 115.569 568.71 156.408 555.772 197.281C554.126 202.457 552.479 207.667 550.967 212.877C550.396 214.86 549.791 215.028 548.077 213.818C543.104 210.255 537.895 207.062 532.25 204.743C530.805 204.138 530.368 203.566 530.905 201.919C544.649 156.912 558.494 111.939 572.876 67.134C579.732 45.7567 586.419 24.312 593.207 2.90105C593.475 2.02713 593.408 0.850719 594.551 0.346536V0.279297Z" fill="black"/>
<path d="M65.4329 211.498C62.2741 211.498 59.149 211.398 55.9902 211.498C53.9068 211.566 53.2347 211.196 53.974 208.91C58.3761 195.096 62.6102 181.247 66.945 167.433C80.1849 125.216 93.4584 82.9988 106.665 40.7482C107.337 38.597 108.143 37.6559 110.596 37.7231C116.679 37.9248 122.794 37.8912 128.91 37.7903C131.094 37.7567 131.599 38.1937 130.893 40.4121C124.374 61.0836 117.955 81.7888 111.47 102.46C100.347 137.888 89.1907 173.315 78.1351 208.776C77.463 210.961 76.5221 211.7 74.3043 211.566C71.3471 211.364 68.39 211.532 65.4329 211.532V211.498Z" fill="black"/>
<path d="M723.462 103.569C698.965 103.3 674.434 103.065 649.937 102.796C647.697 102.773 646.901 101.698 647.551 99.5689C649.265 93.9893 651.113 88.4769 652.659 82.8636C653.23 80.8133 654.171 80.3763 656.12 80.41C692.278 80.8805 728.469 81.2839 764.626 81.6872C777.765 81.8553 790.904 82.057 804.044 82.1914C805.757 82.1914 806.362 82.4603 805.791 84.3426C803.943 90.3592 802.162 96.3758 800.515 102.46C800.045 104.14 799.171 104.51 797.558 104.51C772.859 104.476 748.161 104.51 723.462 104.51C723.462 104.207 723.462 103.905 723.462 103.602V103.569Z" fill="black"/>
<path d="M259.589 8.98438C267.923 9.35411 276.223 9.85829 284.49 10.9003C287.01 11.2364 287.077 12.0431 286.136 14.0262C283.414 19.7739 280.625 25.5216 278.441 31.5046C277.937 32.9163 277.03 32.9499 275.853 32.8491C270.342 32.3113 264.798 31.9751 259.253 31.5382C234.017 29.5551 214.493 40.1093 198.33 58.5288C192.281 65.4193 187.072 72.9484 182.065 80.612C180.923 82.3599 180.217 82.8977 178.604 80.9146C174.807 76.2425 170.741 71.8056 166.809 67.3016C166.205 66.5957 165.566 66.058 166.305 64.9488C174.001 53.5206 181.797 42.1597 191.911 32.6474C208.915 16.6144 229.178 9.11883 252.364 9.01799C253.574 9.01799 254.784 9.01799 255.96 9.01799C257.17 9.01799 258.379 9.01799 259.556 9.01799L259.589 8.98438Z" fill="black"/>
<path d="M611.326 211.802C611.192 196.777 614.686 182.324 618.416 167.904C619.492 163.803 620.366 159.635 621.105 155.468C622.718 146.291 618.921 139.502 610.251 136.073C602.791 133.149 594.995 132.544 587.064 133.149C581.587 133.552 581.587 133.552 583.133 128.309C584.544 123.603 585.922 118.931 587.333 114.225C587.635 113.284 587.77 112.276 589.248 112.309C599.363 112.343 609.444 112.78 619.021 116.444C634.983 122.528 642.813 136.073 641.334 154.157C640.528 163.971 637.839 173.416 635.756 182.962C633.202 194.659 631.488 206.424 632.093 218.423C632.228 221.213 632.496 223.969 633.101 226.658C633.437 228.171 633.404 229.078 631.388 229.011C625.742 228.877 620.097 228.877 614.451 228.91C613.208 228.91 612.737 228.541 612.502 227.263C611.46 222.154 611.427 216.978 611.326 211.802Z" fill="black"/>
<path d="M717.88 110.055C720.737 110.055 723.627 110.055 726.483 110.055C729.877 110.055 729.911 110.055 728.97 113.249C724.937 126.324 720.905 139.399 716.839 152.44C709.177 177.112 701.415 201.75 693.854 226.455C693.081 229.009 692.375 228.875 690.46 227.597C685.722 224.404 680.816 221.379 675.439 219.362C673.658 218.69 673.389 217.85 673.927 216.068C679.102 199.229 684.142 182.322 689.284 165.482C694.66 147.836 700.071 130.189 705.413 112.543C706.018 110.56 706.858 109.686 709.043 109.82C712 110.022 714.957 109.854 717.914 109.854V110.022L717.88 110.055Z" fill="black"/>
<path d="M477.55 141.216C496.234 141.216 514.951 141.249 533.635 141.148C536.088 141.148 536.625 141.686 535.819 144.005C533.836 149.753 531.954 155.568 530.207 161.383C529.703 163.063 528.829 163.433 527.216 163.433C500.367 163.265 473.551 163.131 446.702 162.996C436.15 162.963 425.599 162.895 415.047 162.963C412.863 162.963 412.157 162.593 412.896 160.274C414.577 154.896 416.122 149.484 417.467 144.005C418.071 141.552 419.012 140.678 421.734 140.678C440.317 140.812 458.933 140.745 477.55 140.745C477.55 140.879 477.55 141.014 477.55 141.182V141.216Z" fill="black"/>
<path d="M196.122 181.214C193.165 181.214 190.208 181.08 187.25 181.248C184.999 181.382 184.629 180.71 185.301 178.592C188.897 167.063 192.325 155.467 195.853 143.904C202.439 122.46 209.059 101.049 215.578 79.6043C216.116 77.8228 216.822 77.1169 218.771 77.1506C225.256 77.285 231.708 77.3186 238.194 77.1842C240.277 77.1506 240.411 77.8228 239.874 79.537C233.187 100.679 226.567 121.855 219.88 142.997C216.116 154.963 212.218 166.895 208.488 178.895C207.917 180.676 207.211 181.416 205.228 181.281C202.204 181.08 199.113 181.214 196.088 181.214V181.147L196.122 181.214Z" fill="black"/>
<path d="M138.051 113.552C145.108 111.67 151.929 109.754 158.415 106.762C159.96 106.056 160.33 107.434 160.901 108.241C166.984 116.678 170.882 126.089 173.402 136.139C176.897 149.92 178.174 163.97 178.913 178.121C179.451 188.44 179.451 198.826 181.702 209.011C182.038 210.49 181.568 210.994 180.089 210.994C173.536 210.994 166.95 210.96 160.397 211.061C158.583 211.061 158.583 209.952 158.415 208.742C157.104 200.238 156.768 191.633 156.365 183.028C155.794 170.457 155.525 157.886 153.004 145.484C150.753 134.459 146.384 124.341 139.462 115.434C139.025 114.863 138.622 114.258 138.084 113.518L138.051 113.552Z" fill="black"/>
<path d="M83.5089 31.7405C67.8832 31.7405 52.2239 31.7069 36.5982 31.7742C34.4811 31.7742 33.8763 31.4716 34.582 29.2196C36.3965 23.4047 38.0095 17.5226 39.6225 11.6404C40.0594 10.0271 40.7986 9.48926 42.4788 9.48926C73.663 9.59009 104.847 9.62368 135.998 9.62368C138.283 9.62368 138.854 10.1279 138.149 12.4471C136.401 18.094 134.855 23.7745 133.41 29.5221C132.94 31.438 132.033 31.875 130.151 31.875C114.592 31.8078 99.0674 31.8414 83.5089 31.8414V31.7405Z" fill="black"/>
<path d="M58.7786 217.618C74.1355 217.618 89.4924 217.618 104.849 217.618C106.832 217.618 107.706 217.752 106.933 220.173C105.185 225.618 103.64 231.13 102.295 236.71C101.724 239.096 100.615 239.668 98.2966 239.668C75.5469 239.466 52.7636 239.399 30.0139 239.298C22.0498 239.264 14.0857 239.063 6.15522 239.096C4.139 239.096 3.63495 238.659 4.23982 236.643C5.98721 231.097 7.63379 225.517 9.11235 219.87C9.65001 217.82 10.5573 217.147 12.7079 217.147C28.0648 217.248 43.4217 217.215 58.7786 217.215C58.7786 217.383 58.7786 217.551 58.7786 217.719V217.618Z" fill="black"/>
<path d="M436.318 237.85C434.571 237.85 432.79 237.817 431.043 237.85C429.295 237.918 428.623 237.413 428.993 235.464C429.967 230.086 430.807 224.708 431.513 219.296C431.748 217.414 432.353 216.876 434.235 217.011C443.51 217.649 452.247 215.868 460.11 210.557C466.293 206.389 470.829 200.709 474.526 194.289C478.861 186.726 482.322 178.794 484.338 170.29C484.775 168.475 485.481 167.903 487.295 167.937C493.209 168.038 499.124 168.004 505.072 167.937C506.483 167.937 507.121 168.172 506.684 169.786C502.786 184.004 498.048 197.885 489.479 210.087C477.382 227.363 460.547 236.237 439.679 237.682C438.57 237.75 437.461 237.817 436.352 237.884C436.352 237.85 436.352 237.817 436.352 237.783L436.318 237.85Z" fill="black"/>
<path d="M268.898 225.851C265.672 225.851 262.412 225.75 259.186 225.885C257.002 225.985 256.532 225.414 257.271 223.263C262.614 207.667 267.89 192.003 273.166 176.374C276.66 166.055 280.222 155.769 283.683 145.484C284.053 144.341 284.557 143.837 285.801 143.871C292.286 143.938 298.738 143.972 305.223 143.938C306.904 143.938 307.038 144.745 306.668 146.022C305.761 149.215 304.921 152.442 303.879 155.601C296.352 178.39 288.758 201.18 281.264 223.969C280.726 225.582 279.987 226.086 278.34 226.019C275.215 225.885 272.057 225.985 268.898 225.985C268.898 225.985 268.898 225.918 268.898 225.885V225.851Z" fill="black"/>
<path d="M322.532 191.096C319.676 191.096 316.786 190.962 313.93 191.13C311.409 191.298 310.771 190.793 311.611 188.138C316.954 171.332 322.129 154.492 327.405 137.686C330.127 128.981 333.017 120.309 335.705 111.603C336.242 109.889 337.049 109.317 338.83 109.351C345.013 109.485 351.23 109.519 357.413 109.418C359.664 109.418 359.765 110.191 359.194 112.04C353.414 130.224 347.701 148.442 341.989 166.66C339.636 174.122 337.318 181.617 335.1 189.146C334.596 190.827 333.89 191.331 332.21 191.298C328.984 191.197 325.725 191.298 322.499 191.298C322.499 191.264 322.499 191.197 322.499 191.163L322.532 191.096Z" fill="black"/>
<path d="M245.549 249.482C243.331 256.406 241.147 263.128 238.963 269.884C238.727 270.624 238.29 270.859 237.518 270.758C215.877 268.069 195.412 262.557 179.114 246.86C171.083 239.095 165.068 229.987 160.868 219.634C159.96 217.382 160.498 216.811 162.783 216.844C169.268 216.945 175.72 216.844 182.206 216.878C183.315 216.878 184.323 216.878 184.961 218.155C192.825 233.684 206.501 241.448 222.53 245.986C229.957 248.07 237.585 248.776 245.549 249.448V249.482Z" fill="black"/>
<path d="M752.323 0.347347C755.65 0.347347 758.977 0.414571 762.304 0.347347C764.152 0.313735 764.454 0.885144 763.917 2.63298C760.187 14.4981 756.557 26.4304 752.827 38.2956C749.299 49.6565 745.636 60.9838 742.175 72.3784C741.537 74.4959 740.528 75.0673 738.445 74.9665C732.43 74.7312 726.415 74.5632 720.433 74.6304C717.947 74.6304 718.014 73.7901 718.585 71.9078C725.306 49.9926 731.959 28.0438 738.68 6.16225C740.528 0.179271 740.596 0.212895 746.779 0.212895C748.627 0.212895 750.475 0.212895 752.323 0.212895V0.380941V0.347347Z" fill="black"/>
<path d="M624.297 234.119C627.624 234.119 631.152 233.447 634.244 234.321C637.436 235.228 637.772 239.329 639.654 241.85C647.08 251.866 657.33 257.278 669.024 260.437C674.299 261.883 679.676 262.689 685.12 263.16C686.531 263.294 686.901 263.664 686.43 264.975C684.313 271.16 682.196 277.378 680.113 283.563C679.743 284.672 679.172 284.907 678.063 284.739C662.169 282.218 647.148 277.512 634.378 267.16C624.331 258.992 617.677 248.572 613.779 236.27C613.208 234.489 613.376 233.816 615.459 233.917C618.417 234.052 621.374 233.951 624.331 233.951V234.085L624.297 234.119Z" fill="black"/>
<path d="M256.705 103.064C264.837 103.468 273.675 102.963 282.311 105.047C296.895 108.543 306.64 120.442 307.278 135.198C307.345 137.181 306.841 137.719 304.859 137.651C298.945 137.45 293.03 137.483 287.116 137.416C286.276 137.416 285.201 137.819 285.033 136.34C284.058 127.4 277.539 125.013 270.045 123.971C258.553 122.391 246.993 122.593 235.467 123.635C232.208 123.938 232.241 123.938 233.283 120.711C234.896 115.602 236.576 110.493 238.088 105.35C238.592 103.669 239.332 102.964 241.146 103.031C246.153 103.165 251.126 103.064 256.738 103.064H256.705Z" fill="black"/>
<path d="M508.566 55.874C511.792 55.874 515.051 55.9412 518.277 55.874C520.361 55.8068 520.764 56.4118 520.125 58.4285C516.16 70.9323 512.296 83.4696 508.398 96.007C505.709 104.645 503.055 113.317 500.467 121.989C499.93 123.771 499.426 124.14 497.745 123.031C492.604 119.569 487.16 116.611 481.448 114.191C480.238 113.687 480.07 113.216 480.44 111.973C485.715 93.923 490.957 75.8397 496.132 57.7563C496.569 56.2101 497.342 55.7395 498.888 55.7731C502.114 55.874 505.373 55.7731 508.599 55.7731C508.599 55.8068 508.599 55.874 508.599 55.9076L508.566 55.874Z" fill="black"/>
<path d="M126.189 109.989C123.132 109.821 120.006 109.586 116.848 109.451C115.302 109.384 115.067 108.914 115.571 107.401C117.352 101.956 118.965 96.4771 120.544 90.9983C120.947 89.6538 121.384 89.0488 122.997 89.2169C132.944 90.1916 141.782 87.3345 149.712 81.318C153.543 78.3937 157.172 75.2342 160.499 71.7721C161.473 70.7637 162.045 70.5621 163.053 71.7721C167.085 76.7131 171.151 81.6541 175.318 86.4606C176.326 87.6034 175.822 88.1412 175.016 88.8807C163.893 99.2669 151.157 106.561 135.935 108.947C132.742 109.451 129.516 109.653 126.189 109.989Z" fill="black"/>
<path d="M365.581 86.6296C365.581 93.6546 360.138 99.0997 353.114 99.167C346.528 99.2342 341.252 94.0243 341.219 87.4363C341.219 80.5794 346.931 74.6637 353.585 74.63C360.171 74.5964 365.581 80.008 365.581 86.6296Z" fill="black"/>
</svg>
