<svg width="1504" height="355" viewBox="0 0 1504 355" fill="none" xmlns="http://www.w3.org/2000/svg">
<path d="M1032.36 52.1387C1032.56 63.8307 1032.55 80.8731 1032.43 100.462C1032.76 84.3578 1033.03 68.2424 1032.36 52.1387Z" fill="black"/>
<path d="M1446.23 288.597H1446.2C1440.68 289.981 1438.82 296.857 1434.79 300.371C1412.62 323.362 1376.18 317.883 1349.59 306.12C1323.16 293.067 1301.07 273.168 1281.07 251.726C1256.46 225.819 1237.48 194.703 1209.94 171.623C1204.34 166.443 1203.32 160.078 1209.38 155.209C1216.77 148.849 1226.34 144.69 1234.1 138.87C1271.83 108.083 1309.04 74.2737 1361.52 91.7502C1378.18 96.9656 1388.2 106.868 1396.44 122.209C1404.17 131.15 1412.22 121.441 1402.69 109.403C1392 94.795 1374.31 84.6517 1357.74 79.9643C1336.41 74.0156 1313.46 76.6731 1292.9 84.6751C1246.87 102.703 1219.65 155.643 1165.05 153.889C1145.97 153.854 1136.64 148.879 1135.32 129.015C1134.05 120.086 1131.58 111.069 1128.71 102.586C1108.72 44.4892 1048.76 -5.93393 985.394 0.566221C969.501 2.66645 953.858 8.18102 940.705 17.4678C931.192 24.3962 918.488 35.4371 924.507 48.1616C929.304 58.1348 935.428 54.1983 936.234 44.8294C937.339 28.1684 955.202 19.2688 969.074 14.1532C1008.06 -0.354829 1051.17 15.702 1080.88 42.6705C1144.63 96.8131 1136.46 199.097 1085.92 260.115C1060.58 291.213 1024.73 321.602 982.899 318.129C901.578 313.97 868.732 252.43 882.634 177.079C883.761 169.054 887.665 163.205 896.453 163.745C903.348 163.704 910.22 164.073 917.08 164.02C935.27 164.02 953.595 163.874 971.803 164.02C974.45 164.097 977.518 164.589 979.294 166.391C978.862 213.376 978.301 263.5 978.739 276.095C978.447 279.281 985.961 286.661 987.556 284.496C987.889 282.824 988.041 281.205 988.094 279.51L988.228 279.557C988.036 257.557 988.152 212.126 988.228 166.361C988.696 164.9 989.964 164.613 992.254 164.261C997.449 163.721 1002.75 164.449 1008.01 164.355C1013.51 164.707 1020.52 162.589 1024.4 167.042C1024.4 185.838 1024.38 204.869 1024.39 221.079C1023.72 234.361 1023.04 247.631 1023.03 260.807C1023.8 267.037 1021.69 282.537 1028.35 285.3C1035.19 284.25 1031.81 264.433 1032.38 258.906C1032.89 239.447 1031.82 218.046 1031.53 197.507V197.495C1031.61 189.159 1031.7 180.558 1031.8 171.852C1032.42 165.851 1037.41 163.481 1043.11 163.95C1050.01 164.202 1056.73 164.214 1063.59 163.827C1079.92 162.777 1097.38 166.443 1113.33 163.539C1119.96 160.858 1113.61 156.435 1109.14 156.312C1085.41 154.763 1061.32 157.033 1037.62 155.596C1033.26 155.08 1032.22 151.46 1032.05 147.623C1032.04 147.254 1032.03 146.878 1032.03 146.509C1031.92 142.273 1032.01 137.556 1032.01 133.239C1032 122.327 1032.24 111.397 1032.46 100.462C1032.59 80.8736 1032.59 63.8312 1032.39 52.1392C1031.7 44.407 1025.19 42.0898 1018.08 41.9959C1013.54 42.1543 1000.65 40.0775 998.302 44.6769C1000.56 54.0869 1021.16 44.3484 1024.07 62.0185C1026.17 72.5314 1024.94 83.9653 1025.27 94.6659C1025.27 112.694 1026.36 130.939 1025.53 148.937C1025.35 150.246 1024.97 151.313 1024.42 152.182C1020.5 158.412 1008.09 154.481 1001.59 155.684C996.952 155.49 991.249 157.08 988.316 153.936C988.299 153.578 988.281 153.202 988.269 152.809C988.328 111.169 988.322 71.1527 987.977 50.3499C987.977 50.2149 987.977 50.08 987.977 49.9451C987.977 49.7046 987.971 49.4758 987.965 49.2411C987.954 48.7483 987.901 48.3083 987.808 47.8918C987.504 46.5366 986.715 45.5393 985.061 44.5126C983.969 43.8849 982.823 43.4332 981.649 43.1047C977.371 41.9138 972.644 42.4183 968.203 42.4535C963.745 42.9228 956.552 41.2508 954.168 45.6566C954.185 45.815 954.214 45.9676 954.249 46.1142C955.254 50.4907 962.173 50.6549 968.408 51.9162C972.253 52.6965 975.841 53.8933 977.64 56.7444C984.366 66.1368 980.948 83.625 981.082 94.9182C980.024 112.711 981.964 130.569 981.269 148.327C981.193 150.674 980.515 152.364 979.434 153.572C977.132 156.142 973.006 156.511 968.928 156.3C960.776 156.171 952.835 155.93 944.725 156.001C929.433 155.848 914.024 156.294 898.755 155.684C890.785 154.745 896.909 148.327 900 144.807C909.77 134.887 912.505 120.655 893.894 127.442C880.752 133.655 868.534 141.968 857.11 150.973C847.574 159.796 833.526 154.91 821.238 155.919C797.438 157.121 768.455 156.453 742.949 156.476C737.275 155.279 749.716 150.31 751.492 150.164C774.591 144.614 801.078 145.517 824.738 144.936C834.45 144.579 835.233 137.416 824.989 136.418C792.816 136.905 752.398 133.731 723.941 150.815C717.706 154.346 707.994 156.593 701.356 155.215C701.327 155.203 701.292 155.191 701.263 155.179C701.356 99.6759 701.456 39.0861 701.006 13.5255C700.825 -0.0556346 685.17 0.454756 675.272 0.261159C668.277 0.22596 661.102 -0.52496 654.183 0.77155C646.499 3.08884 651.39 8.85567 657.596 9.45993C681.092 10.1757 690.61 19.5622 692.51 42.7585C693.076 54.7967 692.644 104.481 692.211 152.598V152.616C691.446 154.053 690.301 155.144 688.53 155.573C683.429 156.834 677.007 154.341 672.023 152.557C655.825 146.245 641.293 134.664 624.435 130.282C600.898 125.547 576.479 127.049 552.69 127.97C530.854 129.372 509.017 131.555 487.163 131.778C480.116 132.089 472.415 130.288 465.485 132.036C457.976 136.254 469.85 140.701 474.051 140.355C514.943 142.426 555.647 133.409 596.2 136.794C611.416 137.791 627.456 138.771 640.837 146.937C644.092 149.137 650.286 153.032 650.023 156.288C648.235 156.922 647.183 156.388 644.191 156.552C601.488 156.476 341.484 156.406 322.446 156.259C322.002 156.142 321.704 155.59 321.482 154.147C321.336 152.586 321.061 150.31 321.067 148.445C320.675 103.812 321.564 59.0969 320.775 14.4465C320.594 0.859549 304.939 1.37581 295.041 1.18221C288.046 1.14701 280.871 0.39609 273.952 1.6926C266.268 4.00989 271.165 9.78259 277.365 10.3868C300.861 11.1026 310.38 20.4891 312.279 43.6855C313.36 66.788 310.771 91.3865 311.577 114.653C310.567 130.329 310.175 156.945 288.713 156.007C253.238 154.646 217.652 153.425 182.183 155.608C121.997 160.8 61.8455 172.316 4.65689 191.705C2.17348 193.124 -0.128789 195.946 0.0056078 198.674C0.0698844 202.3 3.81545 205.808 7.19874 207.574C16.3611 212.425 26.9842 213.341 37.1575 214.784C98.7461 222.258 151.687 202.687 211.061 191.529C240.786 185.774 270.709 181.227 300.545 176.17C313.856 172.979 312.355 183.738 312.384 193.001C311.279 217.289 313.243 242.116 309.667 266.198C308.083 270.68 303.467 272.018 300.183 274.975C293.463 280.788 288.046 289.829 283.944 298.148C279.953 306.179 278.732 315.237 273.777 322.899C266.934 334.679 279.533 334.761 288.181 332.854C294.147 332.021 300.084 330.337 304.022 325.797C315.966 308.813 315.206 287.054 334.764 274.764C353.614 263.095 393.074 273.197 413.175 280.114C449.959 293.601 485.691 309.388 521.423 325.597C561.864 344.136 629.904 375.639 664.52 332.702C673.449 321.174 669.732 316.129 658.361 309.646C648.918 303.592 640.533 296.306 631.698 289.436C558.008 236.461 475.021 194.914 386.407 173.665C383.035 172.961 379.535 172.486 376.269 171.453C375.427 171.195 373.452 170.345 374.358 169.91C464.018 159.562 555.519 166.115 645.471 163.404C656.596 162.794 654.995 168.86 647.183 173.266C627.14 184.465 601.184 178.587 578.985 177.32C557.476 175.396 537.983 181.362 519.699 191.535C515.848 193.688 510.519 195.958 509.275 200.387C508.474 204.359 512.705 206.23 516.298 205.139C534.933 195.911 555.595 187.757 576.578 187.088C586.903 186.501 597.409 188.901 607.588 189.992C623.36 190.977 641.655 190.009 656.152 183.327C663.579 179.297 668.552 171.682 675.961 167.558C682.254 164.097 689.138 163.146 692.06 167.622C691.721 206.178 691.446 240.966 691.791 250.84C691.826 255.85 690.786 257.61 695.799 260.332C698.44 259.874 701.029 256.612 701.28 254.307C701.28 254.025 701.28 253.744 701.274 253.462C701.128 235.587 701.169 201.737 701.234 164.49C701.362 164.408 701.497 164.337 701.637 164.267C707.93 162.771 714.702 164.906 720.791 166.766C725.536 168.373 729.679 171.23 733.647 174.152C755.95 189.423 790.444 190.883 817.171 189.71C821.887 187.909 818.258 183.761 814.886 182.899C807.167 180.769 798.911 181.767 791.075 180.899C775.882 179.045 744.912 179.039 737.48 164.372C765.352 162.507 826.678 163.064 843.776 163.181C844.775 164.179 843.741 165.34 842.595 167.458C839.358 172.445 835.209 177.543 831.966 182.653C808.61 217.342 797.222 261.358 764.949 289.289C726.319 321.538 684.744 302.542 648.661 277.028C646.219 275.198 639.084 270.751 641.351 276.13C643.589 280.049 647.674 283.1 651.162 285.898C681.623 309.124 727.079 325.099 762.378 303.562C808.079 273.473 818.895 213.769 851.512 172.286C853.774 169.347 856.093 166.285 859.588 164.848C863.666 163.357 869.732 162.466 873.407 165.452C876.434 169.776 872.25 177.654 872.11 182.881C865.075 239.975 881.845 292.046 936.55 317.296C942.224 320.124 948.114 320.957 954.173 322.4C962.383 324.23 970.488 326.008 978.897 326.894C1060.21 335.553 1120.39 259.616 1135.6 186.061C1140.98 165.423 1155.29 160.946 1174.76 165.27C1220.41 175.478 1248.52 228.465 1277.76 258.132C1305.81 286.274 1336.63 316.305 1377.35 322.963C1400.76 328.073 1427.27 325.028 1443.6 305.674C1446.68 302.307 1449.71 297.467 1449.95 293.12C1450.08 290.949 1448.69 288.245 1446.23 288.579L1446.23 288.597ZM288.385 169.881C274.776 172.187 261.033 173.888 247.424 176.199H247.365C204.732 183.439 162.795 193.999 120.425 202.024C96.0698 206.653 70.6339 209.398 45.8757 207.861C38.4255 207.286 31.355 206.676 24.343 204.899C18.0848 203.168 19.1717 199.061 21.6434 194.421C22.4148 193.042 23.1802 192.11 24.53 191.441C25.0559 191.183 25.5468 190.983 26.1194 190.772C37.0406 186.947 54.9212 182.57 67.1279 179.655C100.283 172.028 134.706 166.326 168.726 163.657C193.449 162.067 218.032 163.399 242.609 163.698C252.94 163.862 263.306 164.056 273.608 164.883C277.417 165.247 303.116 167.177 288.385 169.887V169.881ZM308.34 291.09L308.323 291.149C306.465 297.678 304.104 304.689 301.089 310.866C299.476 313.94 297.524 317.677 294.661 319.044C291.728 320.112 291.926 315.736 292.335 313.823C294.123 304.736 299.412 295.83 305.395 288.808C308.393 285.488 309.456 286.855 308.34 291.096V291.09ZM405.094 186.519L405.147 186.53C473.49 205.298 539.081 233.451 597.836 273.256C616.02 285.687 634.012 299.151 648.544 315.771C650.227 317.936 650.8 320.282 649.544 322.664C647.031 327.029 642.204 329.704 637.886 331.787C618.96 340.352 594.651 341.314 573.837 337.636C568.748 336.691 563.88 335.371 559.083 333.588C528.984 322.259 501.322 304.947 471.229 293.525C463.422 290.527 455.025 288.433 447.3 285.276C441.346 282.742 435.631 279.404 429.478 277.257C398.485 265.958 363.332 255.251 330.481 263.429C324.702 264.849 322.51 264.045 323.007 257.41C324.404 242.157 324.813 226.781 325.987 211.563C326.747 203.772 326.045 196.011 325.812 188.185C325.794 183.885 326.057 178.88 329.166 175.759C334.273 170.931 342.313 172.838 348.56 174.175C367.247 178.663 386.471 181.432 405.1 186.53L405.094 186.519ZM878.181 156.153C875.546 157.62 871.59 157.315 868.528 157.274C867.108 157.139 863.766 157.203 864.473 155.444C864.747 154.804 865.443 154.106 866.039 153.554C870.538 149.465 881.161 142.244 887.145 139.041C888.056 138.554 889.231 137.996 890.078 137.897C893.07 137.68 888.243 143.194 887.53 144.162C886.023 146.045 884.474 148.275 883.084 150.445C881.564 152.762 880.279 154.904 878.216 156.118L878.175 156.142L878.181 156.153Z" fill="black"/>
<path d="M1290.76 156.67C1292.07 156.782 1293.04 157.503 1293.06 158.788C1293.07 160.255 1291.84 161.522 1290.7 162.425C1286.26 165.957 1278.17 168.398 1275.13 173.736C1271.68 180.899 1282.09 181.439 1286.96 181.075C1295.04 180.629 1302.45 177.725 1309.67 174.428C1338.65 159.762 1372.63 158.73 1404.32 162.795C1408.78 163.499 1418.33 164.08 1421.05 167.389C1422.61 169.213 1421.7 171.39 1419.41 171.9C1417.67 172.328 1415.78 172.058 1414.02 171.742C1410.44 171.02 1406.8 170.193 1403.2 169.747C1400.36 169.377 1397.53 169.184 1394.66 169.031C1387.77 168.791 1380.52 168.057 1373.72 169.16C1371.21 169.641 1368.53 170.756 1367.18 172.991C1365.64 175.432 1366.21 178.582 1368.13 180.735C1372.46 185.745 1386.19 187.306 1392.77 188.033C1405.55 189.183 1418.41 188.232 1431.21 188.391C1443.48 188.479 1456.38 189.236 1468.51 188.532C1471.25 188.356 1473.94 188.004 1476.66 187.452C1481.4 186.508 1486.8 184.883 1491.69 184.237C1495.92 183.598 1501.65 184.085 1503.39 188.391C1504.74 192.896 1500.03 195.97 1496.04 196.856C1492.94 197.584 1489.84 197.566 1486.73 197.578C1482.87 197.578 1478.91 197.42 1475.03 197.314C1467.54 197.038 1460.12 197.361 1452.63 197.924C1442.4 198.745 1432.05 199.191 1421.78 199.062C1404.18 198.804 1382.68 199.021 1366.97 189.124C1363.5 186.778 1360.38 183.774 1358.66 179.89C1357.64 177.649 1357.11 175.138 1355.98 173.326C1352.73 167.301 1339.35 171.454 1334.24 173.167C1314.02 179.779 1285.88 198.106 1265.99 186.871C1264.27 185.763 1262.81 184.355 1261.96 182.777C1259.53 178.318 1262.55 173.279 1265.84 170.093C1270.47 165.488 1276.15 163.118 1281.83 160.132C1284.55 158.776 1287.65 156.524 1290.74 156.665H1290.78L1290.76 156.67Z" fill="black"/>
</svg>